cluster_id,original_time,note,velocity
0,0.0,36,127
0,0.0088,42,127
1,0.2656,42,127
2,0.5689,38,127
2,0.5713,42,127
3,0.8233,42,127
4,1.1004,42,127
5,1.3932,42,127
6,1.4171,36,127
7,1.6738,42,127
7,1.6837,38,109
8,1.9507,42,127
9,2.2547,42,127
9,2.257,36,127
10,2.5379,42,127
11,2.8208,42,127
11,2.8242,38,113
12,3.1025,42,127
13,3.4016,42,127
14,3.6892,36,126
14,3.6937,42,127
15,3.95,38,127
15,3.9502,42,127
16,4.2676,42,127
17,4.5648,36,127
17,4.5649,42,127
