cluster_id,original_time,note,velocity
0,0.055,42,127
1,0.3449,42,127
1,0.3546,51,58
2,0.6605,42,127
3,0.9428,42,121
4,1.2029,36,127
5,1.2267,42,127
6,1.4788,38,127
6,1.48,42,127
7,1.7775,42,127
8,2.056,42,127
9,2.342,42,127
10,2.6027,42,127
11,2.623,51,63
12,2.9062,42,61
13,3.1814,42,60
14,3.4237,36,127
15,3.4669,42,127
16,3.7087,38,127
16,3.7238,42,127
