cluster_id,original_time,note,velocity
0,0.1208,42,127
1,0.4059,38,127
1,0.4199,42,127
2,0.705,42,127
3,0.9984,42,127
4,1.2764,36,127
5,1.3008,42,127
6,1.5664,38,120
6,1.5665,42,127
7,1.8519,42,127
8,2.1553,36,127
8,2.1554,42,127
9,2.4366,42,127
10,2.7114,38,127
10,2.7255,42,127
11,3.0224,42,127
12,3.3208,42,127
13,3.5775,36,121
14,3.6252,42,127
15,3.8735,38,120
15,3.8894,42,127
16,4.1983,42,55
