time,note,velocity
0.0,36,127
0.018,42,127
0.2685,42,127
0.5754,38,127
0.584,42,127
0.851,42,127
1.1478,42,127
1.4275,36,127
1.4401,42,127
1.7194,42,127
1.7299,38,127
1.9886,42,127
2.2938,42,127
2.3012,36,127
2.5704,42,127
2.8761,38,127
2.8773,42,127
3.1682,42,127
3.475,42,127
3.757,36,127
3.7707,42,127
4.038,38,104
4.0454,42,127
4.3321,42,127
4.6257,36,123
4.63,42,127
