time,note,velocity
0.055,42,127
0.3449,42,127
0.3546,51,58
0.6605,42,127
0.9428,42,121
1.2029,36,127
1.2267,42,127
1.4788,38,127
1.48,42,127
1.7775,42,127
2.056,42,127
2.342,42,127
2.6027,42,127
2.623,51,63
2.9062,42,61
3.1814,42,60
3.4237,36,127
3.4669,42,127
3.7087,38,127
3.7238,42,127
