time,note,velocity
0.1208,42,127
0.4059,38,127
0.4199,42,127
0.705,42,127
0.9984,42,127
1.2764,36,127
1.3008,42,127
1.5664,38,120
1.5665,42,127
1.8519,42,127
2.1553,36,127
2.1554,42,127
2.4366,42,127
2.7114,38,127
2.7255,42,127
3.0224,42,127
3.3208,42,127
3.5775,36,121
3.6252,42,127
3.8735,38,120
3.8894,42,127
4.1983,42,55
