time,note,velocity
0.0,36,127
0.0088,42,127
0.2656,42,127
0.5689,38,127
0.5713,42,127
0.8233,42,127
1.1004,42,127
1.3932,42,127
1.4171,36,127
1.6738,42,127
1.6837,38,109
1.9507,42,127
2.2547,42,127
2.257,36,127
2.5379,42,127
2.8208,42,127
2.8242,38,113
3.1025,42,127
3.4016,42,127
3.6892,36,126
3.6937,42,127
3.95,38,127
3.9502,42,127
4.2676,42,127
4.5648,36,127
4.5649,42,127
