cluster_id,original_time,note,velocity
0,0.0,36,127
0,0.0042,42,127
1,0.2902,42,127
2,0.5962,38,91
2,0.6017,42,127
3,0.8936,42,127
4,1.1898,42,127
5,1.4725,36,72
5,1.4862,42,127
6,1.7737,42,127
6,1.782,38,127
7,2.0621,42,127
8,2.3739,36,127
8,2.3741,42,127
9,2.674,42,69
10,2.9729,42,102
10,2.9866,38,55
11,3.279,42,127
12,3.5682,42,127
13,3.8986,36,84
13,3.9059,42,127
14,4.2009,38,81
14,4.203,42,127
15,4.4799,42,127
16,4.7921,36,89
16,4.7922,42,127
